<mxfile host="app.diagrams.net" modified="2024-06-03T13:46:52.546Z" agent="Mozilla/5.0 (Windows NT 10.0; Win64; x64) AppleWebKit/537.36 (KHTML, like Gecko) Chrome/125.0.0.0 Safari/537.36" etag="fY-cQ93buDNIPfEoAG-a" version="24.4.13" type="google">
  <diagram id="R2lEEEUBdFMjLlhIrx00" name="Page-1">
    <mxGraphModel dx="794" dy="500" grid="1" gridSize="10" guides="1" tooltips="1" connect="1" arrows="1" fold="1" page="1" pageScale="1" pageWidth="850" pageHeight="1100" math="0" shadow="0" extFonts="Permanent Marker^https://fonts.googleapis.com/css?family=Permanent+Marker">
      <root>
        <mxCell id="0" />
        <mxCell id="1" parent="0" />
        <mxCell id="gMkkmay06IK2mc3bHJ9z-2" value="Produkt" style="rounded=0;whiteSpace=wrap;html=1;" vertex="1" parent="1">
          <mxGeometry x="160" y="230" width="120" height="60" as="geometry" />
        </mxCell>
        <mxCell id="gMkkmay06IK2mc3bHJ9z-3" value="Kunde" style="rounded=0;whiteSpace=wrap;html=1;" vertex="1" parent="1">
          <mxGeometry x="305" y="20" width="120" height="60" as="geometry" />
        </mxCell>
        <mxCell id="gMkkmay06IK2mc3bHJ9z-4" value="Bestellung" style="rounded=0;whiteSpace=wrap;html=1;" vertex="1" parent="1">
          <mxGeometry x="305" y="140" width="120" height="60" as="geometry" />
        </mxCell>
        <mxCell id="gMkkmay06IK2mc3bHJ9z-5" value="Mitarbeiter" style="rounded=0;whiteSpace=wrap;html=1;" vertex="1" parent="1">
          <mxGeometry x="450" y="230" width="120" height="60" as="geometry" />
        </mxCell>
        <mxCell id="gMkkmay06IK2mc3bHJ9z-18" value="" style="endArrow=none;html=1;rounded=0;exitX=0.5;exitY=1;exitDx=0;exitDy=0;entryX=0.5;entryY=0;entryDx=0;entryDy=0;" edge="1" parent="1" source="gMkkmay06IK2mc3bHJ9z-3" target="gMkkmay06IK2mc3bHJ9z-4">
          <mxGeometry width="50" height="50" relative="1" as="geometry">
            <mxPoint x="300" y="220" as="sourcePoint" />
            <mxPoint x="350" y="170" as="targetPoint" />
          </mxGeometry>
        </mxCell>
        <mxCell id="gMkkmay06IK2mc3bHJ9z-19" value="1" style="text;html=1;align=center;verticalAlign=middle;whiteSpace=wrap;rounded=0;" vertex="1" parent="1">
          <mxGeometry x="350" y="80" width="60" height="30" as="geometry" />
        </mxCell>
        <mxCell id="gMkkmay06IK2mc3bHJ9z-20" value="m" style="text;html=1;align=center;verticalAlign=middle;resizable=0;points=[];autosize=1;strokeColor=none;fillColor=none;" vertex="1" parent="1">
          <mxGeometry x="365" y="118" width="30" height="30" as="geometry" />
        </mxCell>
        <mxCell id="gMkkmay06IK2mc3bHJ9z-21" value="" style="endArrow=none;html=1;rounded=0;exitX=0.5;exitY=0;exitDx=0;exitDy=0;entryX=0;entryY=0.5;entryDx=0;entryDy=0;" edge="1" parent="1" source="gMkkmay06IK2mc3bHJ9z-2" target="gMkkmay06IK2mc3bHJ9z-4">
          <mxGeometry width="50" height="50" relative="1" as="geometry">
            <mxPoint x="290" y="220" as="sourcePoint" />
            <mxPoint x="340" y="170" as="targetPoint" />
          </mxGeometry>
        </mxCell>
        <mxCell id="gMkkmay06IK2mc3bHJ9z-22" value="" style="endArrow=none;html=1;rounded=0;entryX=1;entryY=0.5;entryDx=0;entryDy=0;exitX=0.5;exitY=0;exitDx=0;exitDy=0;" edge="1" parent="1" source="gMkkmay06IK2mc3bHJ9z-5" target="gMkkmay06IK2mc3bHJ9z-4">
          <mxGeometry width="50" height="50" relative="1" as="geometry">
            <mxPoint x="290" y="220" as="sourcePoint" />
            <mxPoint x="340" y="170" as="targetPoint" />
          </mxGeometry>
        </mxCell>
        <mxCell id="gMkkmay06IK2mc3bHJ9z-23" value="m" style="text;html=1;align=center;verticalAlign=middle;resizable=0;points=[];autosize=1;strokeColor=none;fillColor=none;" vertex="1" parent="1">
          <mxGeometry x="420" y="148" width="30" height="30" as="geometry" />
        </mxCell>
        <mxCell id="gMkkmay06IK2mc3bHJ9z-24" value="1" style="text;html=1;align=center;verticalAlign=middle;resizable=0;points=[];autosize=1;strokeColor=none;fillColor=none;" vertex="1" parent="1">
          <mxGeometry x="505" y="208" width="30" height="30" as="geometry" />
        </mxCell>
        <mxCell id="gMkkmay06IK2mc3bHJ9z-25" value="m" style="text;html=1;align=center;verticalAlign=middle;resizable=0;points=[];autosize=1;strokeColor=none;fillColor=none;" vertex="1" parent="1">
          <mxGeometry x="285" y="148" width="30" height="30" as="geometry" />
        </mxCell>
        <mxCell id="gMkkmay06IK2mc3bHJ9z-26" value="m" style="text;html=1;align=center;verticalAlign=middle;resizable=0;points=[];autosize=1;strokeColor=none;fillColor=none;" vertex="1" parent="1">
          <mxGeometry x="200" y="208" width="30" height="30" as="geometry" />
        </mxCell>
        <mxCell id="gMkkmay06IK2mc3bHJ9z-46" value="Bestellung" style="swimlane;whiteSpace=wrap;html=1;" vertex="1" parent="1">
          <mxGeometry x="195" y="420" width="375" height="180" as="geometry" />
        </mxCell>
        <mxCell id="gMkkmay06IK2mc3bHJ9z-47" value="Bestellnummer: int" style="text;html=1;align=left;verticalAlign=middle;whiteSpace=wrap;rounded=0;" vertex="1" parent="gMkkmay06IK2mc3bHJ9z-46">
          <mxGeometry y="20" width="200" height="30" as="geometry" />
        </mxCell>
        <mxCell id="gMkkmay06IK2mc3bHJ9z-48" value="Datum: date" style="text;html=1;align=left;verticalAlign=middle;whiteSpace=wrap;rounded=0;" vertex="1" parent="gMkkmay06IK2mc3bHJ9z-46">
          <mxGeometry y="50" width="200" height="30" as="geometry" />
        </mxCell>
        <mxCell id="gMkkmay06IK2mc3bHJ9z-49" value="Status: String" style="text;html=1;align=left;verticalAlign=middle;whiteSpace=wrap;rounded=0;" vertex="1" parent="gMkkmay06IK2mc3bHJ9z-46">
          <mxGeometry y="80" width="200" height="30" as="geometry" />
        </mxCell>
        <mxCell id="gMkkmay06IK2mc3bHJ9z-50" value="Gesamtbetrag: float" style="text;html=1;align=left;verticalAlign=middle;whiteSpace=wrap;rounded=0;" vertex="1" parent="gMkkmay06IK2mc3bHJ9z-46">
          <mxGeometry y="110" width="200" height="30" as="geometry" />
        </mxCell>
        <mxCell id="gMkkmay06IK2mc3bHJ9z-40" value="Kunde" style="swimlane;whiteSpace=wrap;html=1;" vertex="1" parent="gMkkmay06IK2mc3bHJ9z-46">
          <mxGeometry x="235" y="35" width="125" height="120" as="geometry" />
        </mxCell>
        <mxCell id="gMkkmay06IK2mc3bHJ9z-42" value="Kundennummer: int" style="text;html=1;align=left;verticalAlign=middle;whiteSpace=wrap;rounded=0;" vertex="1" parent="gMkkmay06IK2mc3bHJ9z-40">
          <mxGeometry y="20" width="200" height="30" as="geometry" />
        </mxCell>
        <mxCell id="gMkkmay06IK2mc3bHJ9z-43" value="Name: String" style="text;html=1;align=left;verticalAlign=middle;whiteSpace=wrap;rounded=0;" vertex="1" parent="gMkkmay06IK2mc3bHJ9z-40">
          <mxGeometry y="50" width="200" height="30" as="geometry" />
        </mxCell>
        <mxCell id="gMkkmay06IK2mc3bHJ9z-44" value="Adresse: String" style="text;html=1;align=left;verticalAlign=middle;whiteSpace=wrap;rounded=0;" vertex="1" parent="gMkkmay06IK2mc3bHJ9z-40">
          <mxGeometry y="80" width="200" height="30" as="geometry" />
        </mxCell>
        <mxCell id="gMkkmay06IK2mc3bHJ9z-51" value="Produkt" style="swimlane;whiteSpace=wrap;html=1;startSize=23;" vertex="1" parent="1">
          <mxGeometry x="140" y="690" width="200" height="150" as="geometry" />
        </mxCell>
        <mxCell id="gMkkmay06IK2mc3bHJ9z-52" value="Produktname: String" style="text;html=1;align=left;verticalAlign=middle;whiteSpace=wrap;rounded=0;" vertex="1" parent="gMkkmay06IK2mc3bHJ9z-51">
          <mxGeometry y="20" width="200" height="30" as="geometry" />
        </mxCell>
        <mxCell id="gMkkmay06IK2mc3bHJ9z-53" value="Beschreibung: String" style="text;html=1;align=left;verticalAlign=middle;whiteSpace=wrap;rounded=0;" vertex="1" parent="gMkkmay06IK2mc3bHJ9z-51">
          <mxGeometry y="50" width="200" height="30" as="geometry" />
        </mxCell>
        <mxCell id="gMkkmay06IK2mc3bHJ9z-54" value="Preis: int" style="text;html=1;align=left;verticalAlign=middle;whiteSpace=wrap;rounded=0;" vertex="1" parent="gMkkmay06IK2mc3bHJ9z-51">
          <mxGeometry y="80" width="200" height="30" as="geometry" />
        </mxCell>
        <mxCell id="gMkkmay06IK2mc3bHJ9z-55" value="GrÃ¶sse: int" style="text;html=1;align=left;verticalAlign=middle;whiteSpace=wrap;rounded=0;" vertex="1" parent="gMkkmay06IK2mc3bHJ9z-51">
          <mxGeometry y="110" width="200" height="30" as="geometry" />
        </mxCell>
        <mxCell id="gMkkmay06IK2mc3bHJ9z-64" value="Mitarbeiter" style="swimlane;whiteSpace=wrap;html=1;startSize=23;" vertex="1" parent="1">
          <mxGeometry x="425" y="690" width="200" height="150" as="geometry" />
        </mxCell>
        <mxCell id="gMkkmay06IK2mc3bHJ9z-65" value="Name: String" style="text;html=1;align=left;verticalAlign=middle;whiteSpace=wrap;rounded=0;" vertex="1" parent="gMkkmay06IK2mc3bHJ9z-64">
          <mxGeometry y="20" width="200" height="30" as="geometry" />
        </mxCell>
        <mxCell id="gMkkmay06IK2mc3bHJ9z-66" value="MitarbeiterID: int" style="text;html=1;align=left;verticalAlign=middle;whiteSpace=wrap;rounded=0;" vertex="1" parent="gMkkmay06IK2mc3bHJ9z-64">
          <mxGeometry y="50" width="200" height="30" as="geometry" />
        </mxCell>
        <mxCell id="gMkkmay06IK2mc3bHJ9z-68" value="Abteilung: String" style="text;html=1;align=left;verticalAlign=middle;whiteSpace=wrap;rounded=0;" vertex="1" parent="gMkkmay06IK2mc3bHJ9z-64">
          <mxGeometry y="80" width="200" height="30" as="geometry" />
        </mxCell>
        <mxCell id="gMkkmay06IK2mc3bHJ9z-69" value="Geschlecht: String" style="text;html=1;align=left;verticalAlign=middle;whiteSpace=wrap;rounded=0;" vertex="1" parent="gMkkmay06IK2mc3bHJ9z-64">
          <mxGeometry y="110" width="200" height="30" as="geometry" />
        </mxCell>
        <mxCell id="gMkkmay06IK2mc3bHJ9z-70" value="" style="endArrow=none;html=1;rounded=0;exitX=0.5;exitY=0;exitDx=0;exitDy=0;" edge="1" parent="1" source="gMkkmay06IK2mc3bHJ9z-51">
          <mxGeometry width="50" height="50" relative="1" as="geometry">
            <mxPoint x="280" y="680" as="sourcePoint" />
            <mxPoint x="240" y="600" as="targetPoint" />
          </mxGeometry>
        </mxCell>
        <mxCell id="gMkkmay06IK2mc3bHJ9z-74" value="" style="endArrow=none;html=1;rounded=0;exitX=0.539;exitY=0.001;exitDx=0;exitDy=0;exitPerimeter=0;" edge="1" parent="1" source="gMkkmay06IK2mc3bHJ9z-64">
          <mxGeometry width="50" height="50" relative="1" as="geometry">
            <mxPoint x="280" y="680" as="sourcePoint" />
            <mxPoint x="533" y="600" as="targetPoint" />
          </mxGeometry>
        </mxCell>
        <mxCell id="gMkkmay06IK2mc3bHJ9z-77" value="m" style="edgeLabel;html=1;align=center;verticalAlign=middle;resizable=0;points=[];" vertex="1" connectable="0" parent="gMkkmay06IK2mc3bHJ9z-74">
          <mxGeometry x="0.8586" y="-3" relative="1" as="geometry">
            <mxPoint x="14" y="4" as="offset" />
          </mxGeometry>
        </mxCell>
        <mxCell id="gMkkmay06IK2mc3bHJ9z-75" value="m" style="text;html=1;align=center;verticalAlign=middle;resizable=0;points=[];autosize=1;strokeColor=none;fillColor=none;" vertex="1" parent="1">
          <mxGeometry x="240" y="600" width="30" height="30" as="geometry" />
        </mxCell>
        <mxCell id="gMkkmay06IK2mc3bHJ9z-76" value="m" style="text;html=1;align=center;verticalAlign=middle;resizable=0;points=[];autosize=1;strokeColor=none;fillColor=none;" vertex="1" parent="1">
          <mxGeometry x="240" y="660" width="30" height="30" as="geometry" />
        </mxCell>
        <mxCell id="gMkkmay06IK2mc3bHJ9z-78" value="1" style="text;html=1;align=center;verticalAlign=middle;resizable=0;points=[];autosize=1;strokeColor=none;fillColor=none;" vertex="1" parent="1">
          <mxGeometry x="535" y="668" width="30" height="30" as="geometry" />
        </mxCell>
      </root>
    </mxGraphModel>
  </diagram>
</mxfile>
